<svg xmlns="http://www.w3.org/2000/svg" width="237" height="80" viewBox="0 0 237 80" fill="none">
<g clip-path="url(#clip0_2899_17779)">
<path d="M132.432 46.514H136.505L137.196 48.8093H140.168L136.127 36.937H133.344L129.003 48.8093H131.693L132.432 46.514ZM134.554 40.0358L135.892 44.4697H133.108L134.554 40.0358ZM143.513 49.0464C141.909 49.0464 140.855 48.3388 140.855 46.5297V36.937H143.418V45.6478C143.418 46.6238 143.575 46.9532 144.236 46.9532C144.55 46.9532 144.834 46.8905 145.006 46.812V48.8564C144.599 48.968 144.001 49.0464 143.513 49.0464ZM155.698 46.514L156.391 48.8093H159.363L155.321 36.937H152.537L148.198 48.8093H150.886L151.626 46.514H155.698ZM153.748 40.0358L155.085 44.4697H152.302L153.748 40.0358ZM168.752 43.8718C168.752 41.3237 167.54 39.9555 165.26 39.9555C164.143 39.9555 163.373 40.3966 162.887 41.0885V36.937H160.323V48.8093H162.887V47.8507C163.391 48.5898 164.129 49.0464 165.26 49.0464C167.509 49.0464 168.752 47.8507 168.752 45.1302V43.8718ZM166.077 45.2086C166.077 46.4826 165.48 47.0961 164.506 47.0961C163.499 47.0961 162.887 46.3571 162.887 45.2086V43.6835C162.918 42.4723 163.594 41.9058 164.474 41.9058C165.464 41.9058 166.077 42.5194 166.077 43.7934V45.2086ZM175.758 47.8507V48.8093H178.321V36.937H175.758V41.0728C175.254 40.3809 174.499 39.9555 173.399 39.9555C171.12 39.9555 169.908 41.3237 169.908 43.8718V45.1302C169.908 47.8507 171.152 49.0464 173.399 49.0464C174.515 49.0464 175.254 48.5898 175.758 47.8507ZM174.154 47.0961C173.18 47.0961 172.583 46.4826 172.583 45.2086V43.7934C172.583 42.5194 173.196 41.9058 174.185 41.9058C175.003 41.9058 175.648 42.4096 175.758 43.4466V45.2086C175.758 46.3571 175.16 47.0961 174.154 47.0961ZM185.528 40.1769H188.092V48.8093H185.528V47.7079C184.993 48.5252 184.207 49.0446 182.933 49.0446C180.998 49.0446 179.946 47.849 179.946 45.6478V40.1752H182.509V44.7991C182.509 46.1829 182.966 46.7649 183.987 46.7649C185.057 46.7649 185.528 46.0573 185.528 44.6578V40.1769ZM193.118 46.955C193.431 46.955 193.716 46.8922 193.889 46.8137V48.8581C193.479 48.968 192.883 49.0464 192.395 49.0464C190.792 49.0464 189.737 48.3388 189.737 46.5297V36.937H192.301V45.6478C192.301 46.6238 192.458 46.955 193.118 46.955ZM200.433 41.0728C199.929 40.3809 199.175 39.9555 198.075 39.9555C195.796 39.9555 194.584 41.3237 194.584 43.8718V44.8461C194.584 47.5667 195.827 48.7623 198.075 48.7623C199.192 48.7623 199.931 48.3057 200.433 47.5824V48.1801C200.433 49.564 199.804 50.3814 198.138 50.3814C197.132 50.3814 196.014 50.1932 195.056 49.7679V51.9064C195.858 52.2201 196.644 52.4885 198.122 52.4885C201.093 52.4885 202.997 51.089 202.997 48.2273V40.1752H200.433V41.0728ZM200.433 45.0203C200.402 46.1201 199.804 46.8137 198.829 46.8137C197.856 46.8137 197.258 46.2003 197.258 44.9263V43.7934C197.258 42.5194 197.871 41.9058 198.861 41.9058C199.679 41.9058 200.323 42.4096 200.433 43.4466V45.0203ZM212.85 43.3541V48.8111H210.285V44.25C210.285 42.8662 209.829 42.2213 208.807 42.2213C207.739 42.2213 207.236 42.9446 207.236 44.3441V48.8093H204.672V36.937H207.236V41.3237C207.771 40.4907 208.589 39.9555 209.893 39.9555C211.826 39.9573 212.85 41.1512 212.85 43.3541ZM218.034 39.9573C216.541 39.9573 215.424 40.2867 214.512 40.8845V43.1485C215.551 42.4566 216.463 42.237 217.546 42.237C218.977 42.237 219.275 42.6779 219.308 43.7621H217.563C215.172 43.7621 214.04 44.6421 214.04 46.4984C214.04 48.039 215.125 49.0464 216.933 49.0464C218.081 49.0464 218.835 48.6682 219.322 47.8507V48.8093H221.886V43.3367C221.888 40.9472 220.614 39.9573 218.034 39.9573ZM219.324 45.4456C219.324 46.8922 218.57 47.2547 217.689 47.2547C216.904 47.2547 216.509 46.9567 216.509 46.3432C216.509 45.6199 216.838 45.3375 218.066 45.3375H219.324V45.4456ZM231.683 43.3541V48.8111H229.119V44.25C229.119 42.8662 228.662 42.2213 227.641 42.2213C226.572 42.2213 226.069 42.9446 226.069 44.3441V48.8093H223.505V40.1769H226.069V41.3254C226.604 40.4924 227.422 39.9573 228.726 39.9573C230.659 39.9573 231.683 41.1512 231.683 43.3541ZM233.305 40.1769H235.869V48.8093H233.305V40.1769ZM233.29 36.686H235.885V38.9029H233.29V36.686ZM138.124 52.4485H140.641V64.3209H138.124V60.5946L138.202 56.8684L136.048 61.3336H133.957L131.849 56.9782L131.928 60.4534V64.3226H129.427V52.4502H131.928L135.041 58.5834L138.124 52.4485ZM146.385 55.4689C143.98 55.4689 142.155 56.7272 142.155 59.4949V60.5337C142.155 63.3013 143.98 64.5596 146.385 64.5596C148.79 64.5596 150.63 63.3013 150.63 60.5337V59.4949C150.633 56.7254 148.792 55.4689 146.385 55.4689ZM147.975 60.5004C147.975 61.9942 147.408 62.6077 146.387 62.6077C145.365 62.6077 144.814 61.9942 144.814 60.5004V59.5263C144.814 58.0326 145.365 57.4191 146.387 57.4191C147.408 57.4191 147.975 58.0326 147.975 59.5263V60.5004ZM156.344 62.4351C156.658 62.4351 156.942 62.4037 157.271 62.341V64.3854C156.861 64.4951 156.122 64.5579 155.636 64.5579C153.78 64.5579 152.665 63.5505 152.665 61.6961V57.623H151.375V55.6884H152.665V53.2989H155.228V55.6884H157.21V57.623H155.228V61.2395C155.228 62.198 155.605 62.4351 156.344 62.4351ZM162.313 55.4689C159.908 55.4689 158.083 56.7272 158.083 59.4949V60.5337C158.083 63.3013 159.908 64.5596 162.313 64.5596C164.718 64.5596 166.558 63.3013 166.558 60.5337V59.4949C166.558 56.7254 164.718 55.4689 162.313 55.4689ZM163.9 60.5004C163.9 61.9942 163.334 62.6077 162.313 62.6077C161.291 62.6077 160.741 61.9942 160.741 60.5004V59.5263C160.741 58.0326 161.291 57.4191 162.313 57.4191C163.336 57.4191 163.9 58.0326 163.9 59.5263V60.5004ZM173.106 55.4689V58.0639C172.95 58.0326 172.777 58.0169 172.618 58.0169C171.219 58.0169 170.48 59.087 170.465 60.7846V64.3226H167.901V55.6901H170.465V57.1053C170.999 56.1451 171.88 55.4689 173.106 55.4689ZM181.408 61.5707C181.408 63.8032 179.348 64.5265 177.445 64.5265C176.392 64.5265 175.009 64.307 174.127 63.8503V61.8216C175.07 62.2939 176.249 62.592 177.508 62.592C178.388 62.592 179.001 62.341 179.001 61.8059C179.001 61.2866 178.623 61.114 177.853 61.0512L176.609 60.9101C175.257 60.7532 173.968 60.1554 173.968 58.3306C173.968 56.2235 175.95 55.4689 177.757 55.4689C178.89 55.4689 180.226 55.6884 180.95 56.1294V58.3149C180.054 57.7798 178.873 57.4191 177.79 57.4191C176.847 57.4191 176.343 57.7014 176.343 58.1738C176.343 58.6618 176.737 58.8029 177.523 58.8814L178.656 58.9912C180.339 59.148 181.408 59.8557 181.408 61.5707ZM182.011 21.2599L180.747 20.012L182.011 18.792L183.275 20.012L182.011 21.2599ZM153.919 27.6683H155.75C155.424 28.491 154.444 28.9319 153.011 28.9319C152.061 28.9319 151.324 28.6618 151.013 28.4771V30.7183C151.253 31.0025 152.02 31.3841 153.167 31.3841C155.253 31.3841 156.641 29.9951 157.081 27.8392H158.089L158.095 27.8374L158.104 27.8392C159.04 27.8392 159.664 27.4854 160.089 26.6628C160.443 27.4854 161.166 27.8967 162.344 27.8967C164.329 27.8967 165.363 26.7342 165.363 24.777C165.363 22.764 164.286 21.4463 162.671 21.4463C161.011 21.4463 160.175 22.8215 159.749 23.672L159.465 24.2541C159.04 25.1203 158.728 25.2475 158.104 25.2475L158.094 25.2492L158.089 25.2475H157.224C157.125 23.1334 156.26 21.5317 154.388 21.5317C152.403 21.5317 151.44 23.2328 151.44 25.0767C151.44 26.6628 152.177 27.6683 153.919 27.6683ZM162.501 23.8254C163.395 23.8254 163.777 24.2785 163.807 24.7892C163.807 25.1308 163.481 25.3016 162.332 25.3016C161.383 25.3016 160.928 25.1447 160.73 24.8763C161.013 24.2227 161.621 23.8254 162.501 23.8254ZM154.232 23.8532C155.338 23.8532 155.75 24.5765 155.75 25.244V25.3155H154.202C153.138 25.3155 152.841 25.1883 152.841 24.8188C152.842 24.2942 153.367 23.8532 154.232 23.8532ZM188.781 19.7139L187.519 18.466L188.781 17.246L190.042 18.466L188.781 19.7139ZM199.471 27.8392H197.529V17.2321H199.471V27.8392ZM148.291 20.7074L147.171 19.5728L148.291 18.4382L149.214 19.3601L150.148 18.4382L151.254 19.5728L150.148 20.7074L149.214 19.7854L148.291 20.7074ZM133.997 28.5485C134.138 28.606 134.549 28.7333 135.173 28.7333C136.421 28.7333 137.357 27.8392 137.357 25.868C137.357 24.7613 137.201 23.9386 136.974 23.0324H138.815C139.001 23.7138 139.155 24.6201 139.155 25.9255C139.155 29.1585 137.611 31.3266 135.37 31.3266C134.406 31.3266 133.995 30.9728 133.995 30.9728L133.997 28.5485ZM142.051 31.3841C144.137 31.3841 145.526 29.9951 145.965 27.8392H146.973C149.071 27.8392 150.276 26.2374 150.276 23.855C150.276 23.2032 150.189 22.3945 150.049 21.6851H148.291C148.433 22.3805 148.518 23.0324 148.518 23.557C148.518 24.7334 148.12 25.244 146.973 25.244H146.108C146.009 23.13 145.144 21.5283 143.273 21.5283C141.285 21.5283 140.324 23.2293 140.324 25.0732C140.324 26.6611 141.059 27.6666 142.803 27.6666H144.634C144.308 28.4893 143.328 28.9302 141.895 28.9302C140.948 28.9302 140.208 28.66 139.897 28.4753V30.7166C140.137 31.0007 140.902 31.3841 142.051 31.3841ZM143.086 25.3155C142.022 25.3155 141.725 25.1883 141.725 24.8188C141.725 24.2942 142.249 23.855 143.114 23.855C144.221 23.855 144.631 24.5783 144.631 25.2457V25.3173L143.086 25.3155ZM213.341 27.8392L213.332 27.8374L213.323 27.8392C211.89 27.8392 211.068 27.3565 210.784 26.3073C210.5 27.3408 209.677 27.8374 208.235 27.8392H208.23C206.843 27.8374 206.122 27.3565 205.583 26.3787C205.286 27.3145 204.506 27.8967 202.916 27.8967C201.258 27.8967 200.535 27.4139 200.535 27.4139L200.548 24.8903C200.548 24.8903 201.244 25.2737 203.086 25.2737C204.135 25.2737 204.674 25.1029 204.944 24.8484C204.886 24.6497 204.816 24.4371 204.745 24.2245L203.34 19.998H205.438L206.657 23.855C207.011 25.0035 207.21 25.244 208.229 25.244C209.475 25.244 209.914 24.96 209.914 23.7556L209.928 23.7696L209.914 22.3648H211.718V23.7539C211.718 24.96 212.13 25.2423 213.32 25.2423L213.329 25.244L213.337 25.2423H214.26C214.06 24.8449 213.947 24.39 213.947 23.8794C213.947 21.6816 215.265 20.5488 217.448 20.5488C218.57 20.5488 219.348 21.1013 219.348 21.1013L219.334 23.3687C219.334 23.3687 218.413 22.872 217.306 22.872C216.257 22.872 215.547 23.2833 215.547 24.0066C215.547 24.7177 216.1 25.1848 217.604 25.1569C218.228 25.1569 219.517 24.9582 220.285 24.831V27.3686C218.46 27.7677 215.892 27.8392 213.341 27.8392ZM230.231 17.2321H232.173V25.9813C232.173 29.0854 230.813 30.6887 227.876 30.6887C225.083 30.6887 223.878 29.3694 223.878 26.3229C223.878 24.6358 224.416 23.4576 224.416 23.4576H226.245C226.245 23.4576 225.707 24.7334 225.707 25.9255C225.707 27.5272 226.331 28.0815 228.02 28.0815C229.706 28.0815 230.231 27.4575 230.231 25.9394V17.2321ZM236.611 15.4735V16.7336C236.611 16.7336 236.341 16.9881 235.634 16.9881C235.038 16.9881 234.699 16.7179 234.203 16.7179C233.508 16.7179 233.267 16.9724 233.267 16.9724V15.7106C233.465 15.5833 233.834 15.4404 234.132 15.4404C234.713 15.4404 234.995 15.6809 235.689 15.6809C236.327 15.6862 236.611 15.4735 236.611 15.4735ZM233.961 17.87H235.903V27.8392H233.961V17.87ZM210.798 31.2291L209.521 29.9811L210.798 28.7612L212.061 29.9811L210.798 31.2291ZM192.534 27.8392L192.543 27.8374L192.552 27.8392C194.606 27.8392 195.74 26.776 195.74 23.7417V17.2182L193.8 17.2321V24.1251C193.8 25.0192 193.546 25.2457 192.552 25.2457L192.543 25.2475L192.534 25.2457H192.137H190.762C191.626 24.5086 191.809 23.8271 191.809 22.9905C191.809 21.3888 190.903 20.6516 188.904 20.6516C187.373 20.6516 186.323 20.8503 185.528 21.2616L185.075 23.543C185.246 23.841 185.84 24.5661 186.464 25.2457H184.89H184.506H184.503C183.313 25.2457 182.901 24.9617 182.901 23.7574V22.3683H181.098L181.111 23.7731L181.098 23.7591C181.098 24.9652 180.658 25.2475 179.41 25.2475H178.707C177.02 25.2475 175.929 25.2057 175.332 25.1482V27.6719C176.693 27.7852 177.276 27.9559 177.276 28.437C177.276 29.0051 176.226 29.4026 174.127 29.4026C171.802 29.4026 170.963 28.8361 170.921 27.203C170.921 26.0266 171.446 24.709 171.446 24.709H169.617C169.617 24.709 169.092 25.9988 169.092 27.5586C169.135 30.6225 170.667 32.0116 173.927 32.0116C177.006 32.0116 178.806 30.6365 178.806 28.5938C178.806 28.3097 178.764 28.0693 178.707 27.8427H179.416C180.859 27.8409 181.682 27.346 181.964 26.3107C182.248 27.3599 183.07 27.8427 184.503 27.8427H184.506H184.761C186.18 27.8427 187.428 27.7155 188.491 26.9207C189.455 27.7434 190.476 27.8427 192.176 27.8427H192.534V27.8392ZM188.781 24.9896C188.328 24.6497 187.504 23.8532 186.823 23.1596C187.22 23.0324 187.872 22.9609 188.639 22.9609C189.901 22.9609 190.34 23.1456 190.34 23.6127C190.34 24.0798 189.858 24.5225 188.781 24.9896ZM130.323 31.3284C129.359 31.3284 128.947 30.9746 128.947 30.9746V28.5485C129.089 28.606 129.501 28.7333 130.125 28.7333C131.373 28.7333 132.308 27.8392 132.308 25.868C132.308 24.7613 132.151 23.9386 131.925 23.0324H133.767C133.951 23.7138 134.107 24.6201 134.107 25.9255C134.108 29.1585 132.564 31.3284 130.323 31.3284ZM173.918 34.0629L173.024 34.9571L171.974 33.8643L173.024 32.7871L173.918 33.6656L174.812 32.7871L175.874 33.8643L174.812 34.9571L173.918 34.0629ZM132.862 22.0407L131.6 20.7928L132.862 19.5728L134.122 20.7928L132.862 22.0407ZM116.129 51.4724V64.5248C103.897 64.5248 93.9457 54.573 93.9457 42.3415C93.9457 37.3065 89.8499 33.209 84.8149 33.209C79.7797 33.209 75.6822 37.3065 75.6822 42.3415C75.6822 47.3767 79.778 51.4724 84.8149 51.4724V64.5248C72.5817 64.5248 62.6317 54.573 62.6317 42.3415C62.6317 37.3065 58.5342 33.209 53.499 33.209C48.4639 33.209 44.3682 37.3065 44.3682 42.3415C44.3682 47.3767 48.4639 51.4724 53.499 51.4724V51.4916H59.8936V64.523H53.499C41.2676 64.523 31.3158 54.5713 31.3158 42.3398C31.3158 37.3047 27.2183 33.2072 22.1832 33.2072C17.1481 33.2072 13.0523 37.3047 13.0523 42.3398C13.0523 47.375 17.1481 51.4707 22.1832 51.4707V51.4899H28.5777V64.5213H22.1832C9.95177 64.5213 0 54.5695 0 42.338C0 30.1067 9.95177 20.1549 22.1832 20.1549C28.2885 20.1549 33.8256 22.635 37.8412 26.64C41.8567 22.635 47.3937 20.1549 53.499 20.1549C59.6043 20.1549 65.1413 22.635 69.1569 26.64C73.1725 22.635 78.7096 20.1549 84.8149 20.1549C97.0462 20.1549 106.998 30.1067 106.998 42.338C106.996 47.375 111.094 51.4724 116.129 51.4724Z" fill="#00383D"/>
</g>
<defs>
<clipPath id="clip0_2899_17779">
<rect width="237" height="49.1192" fill="white" transform="translate(0 15.4404)"/>
</clipPath>
</defs>
</svg>