<svg xmlns="http://www.w3.org/2000/svg" width="180" height="56" viewBox="0 0 180 56" fill="none">
<g clip-path="url(#clip0_7965_12085)">
<path d="M168.612 11.1471L156.939 55.7131L156.912 55.814H166.003L177.718 11.1471H168.612Z" fill="#292929"/>
<path d="M24.1658 36.5108C22.8025 37.1821 21.3023 37.5285 19.7826 37.5229C16.5086 37.5229 14.6508 37 14.4489 34.3539V34.1756C14.4489 34.0706 14.4369 33.9775 14.4369 33.8548V26.1482L14.4489 25.2411V19.8081H14.4369V17.4968L14.4489 16.5818V11.3371L6.32828 12.4086C11.8205 11.345 14.9716 6.99962 14.9716 2.66793V6.10352e-05H5.84698V12.4779L5.33203 12.6225V35.7304C5.63308 42.2229 9.91121 46.0811 16.9306 46.0811C19.4123 46.0811 22.1435 45.5167 24.2351 44.5679L24.2826 44.5481V36.4415L24.1658 36.5108Z" fill="#292929"/>
<path d="M25.6064 9.46698L-0.000976562 13.4145V19.9068L25.6064 15.9595V9.46698Z" fill="#292929"/>
<path d="M25.6064 18.9662L-0.000976562 22.9135V29.1169L25.6064 25.1676V18.9662Z" fill="#292929"/>
<path d="M54.3448 21.9533C53.9824 14.7399 49.4745 10.4658 42.1304 10.4658C37.9077 10.4658 34.4278 12.0957 32.0649 15.1836C29.7021 18.2714 28.4661 22.7852 28.4661 28.2715C28.4661 33.7579 29.7099 38.2855 32.0649 41.3614C34.4198 44.4373 37.9077 46.0792 42.1304 46.0792C49.4745 46.0792 53.9824 41.7833 54.3448 34.5322V45.3999H63.4558V11.2264L54.3448 12.6326V21.9533ZM54.8203 28.2794C54.8203 34.6689 51.4651 38.7966 46.2739 38.7966C40.9261 38.7966 37.7275 34.865 37.7275 28.2794C37.7216 21.6562 40.9163 17.695 46.268 17.695C48.8705 17.695 51.0451 18.7091 52.5564 20.6264C54.032 22.5 54.8142 25.1442 54.8142 28.2735L54.8203 28.2794Z" fill="#292929"/>
<path d="M90.0766 10.4674C82.7285 10.4674 78.2185 14.7435 77.8621 21.9649V1.27533L68.7373 2.68355V45.4015H77.8621V34.5299C78.2185 41.7908 82.7285 46.0908 90.0766 46.0908C98.6743 46.0908 103.808 39.4339 103.808 28.283C103.808 17.1321 98.6743 10.4674 90.0766 10.4674ZM85.9331 38.7902C80.7399 38.7902 77.3867 34.6626 77.3867 28.2731C77.3867 25.1438 78.167 22.4996 79.6446 20.622C81.1558 18.7048 83.3305 17.6907 85.9331 17.6907C91.2808 17.6907 94.4795 21.6519 94.4795 28.2731C94.4795 34.8587 91.2847 38.7902 85.9331 38.7902Z" fill="#292929"/>
<path d="M128.656 10.4674C121.307 10.4674 116.8 14.7435 116.441 21.9649V1.27533L107.316 2.68355V45.4015H116.441V34.5299C116.8 41.7908 121.307 46.0908 128.656 46.0908C137.253 46.0908 142.388 39.4339 142.388 28.283C142.388 17.1321 137.253 10.4674 128.656 10.4674ZM124.512 38.7902C119.321 38.7902 115.966 34.6626 115.966 28.2731C115.966 25.1438 116.746 22.4996 118.224 20.622C119.735 18.7048 121.91 17.6907 124.512 17.6907C129.86 17.6907 133.058 21.6519 133.058 28.2731C133.058 34.8587 129.864 38.7902 124.512 38.7902Z" fill="#292929"/>
<path d="M142.409 11.1471H152.152L160.067 45.3385H151.332L142.409 11.1471Z" fill="#292929"/>
</g>
<defs>
<clipPath id="clip0_7965_12085">
<rect width="180" height="55.814" fill="white"/>
</clipPath>
</defs>
</svg>